<svg xmlns="http://www.w3.org/2000/svg" width="170" height="30" viewBox="0 0 170 30"><defs><style>.cls-1{isolation:isolate;}.cls-2{fill:#d6c97e;}</style></defs><g id="Lag_5" data-name="Lag 5"><g id="Kontakt-2" data-name="Kontakt" class="cls-1"><g class="cls-1"><path class="cls-2" d="M14.54,21.24l0,.59H4.14V4.25H14.51v.59H4.82v7.79H13v.57H4.82v8Z"/><path class="cls-2" d="M17.6,21.83V9.5h.31c.16,0,.24.08.25.25l.08,2.08A6.3,6.3,0,0,1,19.94,10a3.71,3.71,0,0,1,2.17-.69,3,3,0,0,1,2.24.85,4.28,4.28,0,0,1,1.07,2.39A4.3,4.3,0,0,1,26,11.11a4.08,4.08,0,0,1,.91-1,3.72,3.72,0,0,1,1.15-.6,4.68,4.68,0,0,1,1.29-.19A4,4,0,0,1,31,9.61a3.27,3.27,0,0,1,1.22.89A4.18,4.18,0,0,1,33,12a7.06,7.06,0,0,1,.26,2v7.89h-.66V13.94a4.77,4.77,0,0,0-.85-3.06,3,3,0,0,0-2.45-1.05,3.58,3.58,0,0,0-1.34.25,3.14,3.14,0,0,0-1.14.78A3.8,3.8,0,0,0,26,12.14a5,5,0,0,0-.3,1.8v7.89H25V13.94a5.12,5.12,0,0,0-.77-3A2.63,2.63,0,0,0,22,9.83a3.35,3.35,0,0,0-2.06.7,6.31,6.31,0,0,0-1.65,1.92v9.38Z"/><path class="cls-2" d="M38.82,5.05a.72.72,0,0,1-.07.33,1,1,0,0,1-.2.26.74.74,0,0,1-.27.19A.71.71,0,0,1,38,5.9a.87.87,0,0,1-.61-.26.79.79,0,0,1-.25-.59A.85.85,0,0,1,38,4.19a.71.71,0,0,1,.32.07.85.85,0,0,1,.27.18,1.1,1.1,0,0,1,.2.28A.72.72,0,0,1,38.82,5.05ZM38.29,9.5V21.83h-.65V9.5Z"/><path class="cls-2" d="M43.62,3.75V21.83H43V3.75Z"/><path class="cls-2" d="M57.75,9.5,50.56,26a.91.91,0,0,1-.15.23.34.34,0,0,1-.25.1h-.44l2.13-4.76-5.28-12h.5a.29.29,0,0,1,.22.08.31.31,0,0,1,.11.15L52,20.28a3.47,3.47,0,0,1,.19.57,4,4,0,0,1,.21-.57L57,9.73a.59.59,0,0,1,.13-.17.33.33,0,0,1,.19-.06Z"/><path class="cls-2" d="M80.7,4.25V21.83H80V13.19H68.19v8.64H67.5V4.25h.69v8.39H80V4.25Z"/><path class="cls-2" d="M90,9.3a5.57,5.57,0,0,1,2.33.46A4.76,4.76,0,0,1,94.05,11a5.68,5.68,0,0,1,1.06,2,8.85,8.85,0,0,1,.36,2.61,8.85,8.85,0,0,1-.36,2.61,5.5,5.5,0,0,1-1.06,2,4.63,4.63,0,0,1-1.72,1.27,6.26,6.26,0,0,1-4.66,0A4.63,4.63,0,0,1,86,20.26a5.5,5.5,0,0,1-1.06-2,8.53,8.53,0,0,1-.37-2.61,8.53,8.53,0,0,1,.37-2.61A5.68,5.68,0,0,1,86,11a4.76,4.76,0,0,1,1.72-1.28A5.54,5.54,0,0,1,90,9.3Zm0,12.15A5.08,5.08,0,0,0,92.1,21a4,4,0,0,0,1.5-1.18A5,5,0,0,0,94.51,18a8.75,8.75,0,0,0,.3-2.38,8.81,8.81,0,0,0-.3-2.38,5.09,5.09,0,0,0-.91-1.85,4.07,4.07,0,0,0-1.5-1.19,5.58,5.58,0,0,0-4.2,0,4.19,4.19,0,0,0-1.51,1.19,5.24,5.24,0,0,0-.9,1.85,8.81,8.81,0,0,0-.3,2.38,8.75,8.75,0,0,0,.3,2.38,5.17,5.17,0,0,0,.9,1.82A4.16,4.16,0,0,0,87.9,21,5.08,5.08,0,0,0,90,21.45Z"/><path class="cls-2" d="M103.84,9.3a5.57,5.57,0,0,1,2.33.46A4.76,4.76,0,0,1,107.89,11a5.84,5.84,0,0,1,1.06,2,8.85,8.85,0,0,1,.36,2.61,8.85,8.85,0,0,1-.36,2.61,5.66,5.66,0,0,1-1.06,2,4.63,4.63,0,0,1-1.72,1.27,6.28,6.28,0,0,1-4.67,0,4.59,4.59,0,0,1-1.71-1.27,5.52,5.52,0,0,1-1.07-2,8.85,8.85,0,0,1-.36-2.61,8.85,8.85,0,0,1,.36-2.61,5.69,5.69,0,0,1,1.07-2,4.73,4.73,0,0,1,1.71-1.28A5.59,5.59,0,0,1,103.84,9.3Zm0,12.15a5.08,5.08,0,0,0,2.1-.41,4,4,0,0,0,1.5-1.18,5,5,0,0,0,.91-1.82,8.75,8.75,0,0,0,.3-2.38,8.81,8.81,0,0,0-.3-2.38,5.09,5.09,0,0,0-.91-1.85,4.07,4.07,0,0,0-1.5-1.19,5.58,5.58,0,0,0-4.2,0,4.1,4.1,0,0,0-1.51,1.19,5.25,5.25,0,0,0-.91,1.85,8.81,8.81,0,0,0-.3,2.38,8.75,8.75,0,0,0,.3,2.38,5.19,5.19,0,0,0,.91,1.82A4.08,4.08,0,0,0,101.74,21,5.08,5.08,0,0,0,103.84,21.45Z"/><path class="cls-2" d="M113.75,3.75V21.83h-.65V3.75Z"/><path class="cls-2" d="M117.92,11.25a7.27,7.27,0,0,1,1.94-1.45,5.23,5.23,0,0,1,2.31-.5,4.16,4.16,0,0,1,1.68.31,3,3,0,0,1,1.18.88,3.78,3.78,0,0,1,.69,1.39,7,7,0,0,1,.23,1.85v8.1h-.23a.26.26,0,0,1-.28-.27l-.13-1.82c-.34.35-.68.66-1,1a6.84,6.84,0,0,1-1.09.72,6.3,6.3,0,0,1-1.24.45,6,6,0,0,1-1.46.17,3.85,3.85,0,0,1-1.16-.18,3.06,3.06,0,0,1-1-.55,2.72,2.72,0,0,1-.75-1,3.41,3.41,0,0,1-.28-1.43,2.55,2.55,0,0,1,.47-1.48,3.72,3.72,0,0,1,1.46-1.14,10,10,0,0,1,2.5-.76,22.36,22.36,0,0,1,3.6-.33V13.73a4.59,4.59,0,0,0-.8-2.88,2.85,2.85,0,0,0-2.38-1,4.57,4.57,0,0,0-1.61.26,5.07,5.07,0,0,0-1.12.6q-.45.35-.72.6c-.18.18-.32.27-.41.27a.25.25,0,0,1-.22-.14Zm7.38,4.4a15.58,15.58,0,0,0-5.58.94,2.52,2.52,0,0,0-1.81,2.29,2.85,2.85,0,0,0,.23,1.18,2.49,2.49,0,0,0,.61.83,2.36,2.36,0,0,0,.87.49,3.12,3.12,0,0,0,1,.16,5.64,5.64,0,0,0,1.47-.18,5.3,5.3,0,0,0,1.22-.5,6,6,0,0,0,1-.73c.33-.29.64-.59.94-.9Z"/><path class="cls-2" d="M130.89,11.85A6.85,6.85,0,0,1,132.94,10a5,5,0,0,1,2.58-.69,4.74,4.74,0,0,1,1.8.32,3.36,3.36,0,0,1,1.27.91,3.9,3.9,0,0,1,.76,1.46,6.82,6.82,0,0,1,.26,1.95v7.89H139V13.94a6.56,6.56,0,0,0-.21-1.73,3.42,3.42,0,0,0-.66-1.29,2.8,2.8,0,0,0-1.11-.81,3.92,3.92,0,0,0-1.56-.28,4.64,4.64,0,0,0-2.49.7,6.85,6.85,0,0,0-2,2v9.34h-.67V3.75h.67Z"/><path class="cls-2" d="M143.51,11.25a7.12,7.12,0,0,1,1.94-1.45,5.16,5.16,0,0,1,2.31-.5,4.16,4.16,0,0,1,1.68.31,3,3,0,0,1,1.18.88,3.78,3.78,0,0,1,.69,1.39,7,7,0,0,1,.23,1.85v8.1h-.23c-.17,0-.26-.09-.29-.27l-.12-1.82c-.34.35-.69.66-1,1a5.47,5.47,0,0,1-2.32,1.17,6,6,0,0,1-1.46.17,3.91,3.91,0,0,1-1.17-.18,3,3,0,0,1-1-.55,2.72,2.72,0,0,1-.75-1,3.26,3.26,0,0,1-.28-1.43,2.55,2.55,0,0,1,.47-1.48,3.72,3.72,0,0,1,1.46-1.14,9.9,9.9,0,0,1,2.5-.76,22.14,22.14,0,0,1,3.6-.33V13.73a4.59,4.59,0,0,0-.8-2.88,2.85,2.85,0,0,0-2.38-1,4.57,4.57,0,0,0-1.61.26,5.16,5.16,0,0,0-1.13.6q-.45.35-.72.6c-.18.18-.31.27-.4.27a.27.27,0,0,1-.23-.14Zm7.38,4.4a15.68,15.68,0,0,0-5.59.94,2.53,2.53,0,0,0-1.8,2.29,2.7,2.7,0,0,0,.23,1.18,2.41,2.41,0,0,0,1.48,1.32,3.12,3.12,0,0,0,1,.16,5.33,5.33,0,0,0,2.69-.68,6.8,6.8,0,0,0,1-.73c.32-.29.64-.59.94-.9Z"/><path class="cls-2" d="M156.45,11.89A6.81,6.81,0,0,1,158.5,10a5.06,5.06,0,0,1,2.61-.7,4.69,4.69,0,0,1,1.79.32,3.32,3.32,0,0,1,1.28.91,3.9,3.9,0,0,1,.76,1.46,6.82,6.82,0,0,1,.26,1.95v7.89h-.67V13.94a6.56,6.56,0,0,0-.21-1.73,3.41,3.41,0,0,0-.65-1.29,2.8,2.8,0,0,0-1.11-.81A3.92,3.92,0,0,0,161,9.83a4.7,4.7,0,0,0-2.5.7,7,7,0,0,0-2,2v9.34h-.66V9.5h.31c.16,0,.24.08.25.25Z"/></g></g></g></svg>
