<svg xmlns="http://www.w3.org/2000/svg" xmlns:xlink="http://www.w3.org/1999/xlink" width="60" height="50" viewBox="0 0 60 50"><defs><style>.cls-1{fill:url(#Ikke-navngivet_forløb_3);}.cls-2{fill:url(#Ikke-navngivet_forløb_6);}.cls-3{fill:#d5c87d;}</style><linearGradient id="Ikke-navngivet_forløb_3" x1="-330.45" y1="-132.14" x2="-331.92" y2="-132.18" gradientTransform="matrix(53, 0, 0, -46, 17595.01, -6054.6)" gradientUnits="userSpaceOnUse"><stop offset="0" stop-color="#fff"/><stop offset="0.08" stop-color="#ffd600"/><stop offset="0.31" stop-color="#ea5c1e"/><stop offset="0.4" stop-color="#c7161e"/><stop offset="0.74" stop-color="#581229"/><stop offset="0.87" stop-color="#572b52"/><stop offset="1" stop-color="#2b2960" stop-opacity="0.4"/></linearGradient><linearGradient id="Ikke-navngivet_forløb_6" x1="-331.92" y1="-134.82" x2="-331.91" y2="-133.49" gradientTransform="matrix(47, 0, 0, -42, 15631.01, -5608.6)" gradientUnits="userSpaceOnUse"><stop offset="0" stop-color="#fff"/><stop offset="0.03" stop-color="#581229"/><stop offset="0.14" stop-color="#572b52"/><stop offset="1" stop-color="#2b2960" stop-opacity="0.4"/></linearGradient></defs><g id="Lag_6" data-name="Lag 6"><g id="Lag_8" data-name="Lag 8"><path id="Rectangle_18" data-name="Rectangle 18" class="cls-1" d="M26.5,2h7a23,23,0,0,1,23,23h0a23,23,0,0,1-23,23h-7a23,23,0,0,1-23-23h0A23,23,0,0,1,26.5,2Z"/><path id="Rectangle_19" data-name="Rectangle 19" class="cls-2" d="M28.5,4h5a21,21,0,0,1,21,21h0a21,21,0,0,1-21,21h-5a21,21,0,0,1-21-21h0A21,21,0,0,1,28.5,4Z"/><g id="Group_20" data-name="Group 20"><path id="Icon_awesome-facebook-f" data-name="Icon awesome-facebook-f" class="cls-3" d="M35.81,26.52l.82-5.31h-5.1V17.76a2.65,2.65,0,0,1,2.41-2.89,2.35,2.35,0,0,1,.59,0h2.31V10.36A28.27,28.27,0,0,0,32.73,10c-4.2,0-6.95,2.55-6.95,7.16v4.05H21.11v5.31h4.67V39.37h5.75V26.52Z"/></g></g></g></svg>
