<svg xmlns="http://www.w3.org/2000/svg" xmlns:xlink="http://www.w3.org/1999/xlink" width="60" height="50" viewBox="0 0 60 50"><defs><style>.cls-1{fill:url(#Ikke-navngivet_forløb_3);}.cls-2{fill:url(#Ikke-navngivet_forløb_6);}.cls-3{fill:#d5c87d;}</style><linearGradient id="Ikke-navngivet_forløb_3" x1="-404.31" y1="-132.14" x2="-405.78" y2="-132.18" gradientTransform="matrix(53, 0, 0, -46, 21510.01, -6054.6)" gradientUnits="userSpaceOnUse"><stop offset="0" stop-color="#fff"/><stop offset="0.08" stop-color="#ffd600"/><stop offset="0.31" stop-color="#ea5c1e"/><stop offset="0.4" stop-color="#c7161e"/><stop offset="0.74" stop-color="#581229"/><stop offset="0.87" stop-color="#572b52"/><stop offset="1" stop-color="#2b2960" stop-opacity="0.4"/></linearGradient><linearGradient id="Ikke-navngivet_forløb_6" x1="-405.77" y1="-134.82" x2="-405.77" y2="-133.49" gradientTransform="matrix(47, 0, 0, -42, 19102.01, -5608.6)" gradientUnits="userSpaceOnUse"><stop offset="0" stop-color="#fff"/><stop offset="0.03" stop-color="#581229"/><stop offset="0.14" stop-color="#572b52"/><stop offset="1" stop-color="#2b2960" stop-opacity="0.4"/></linearGradient></defs><g id="Lag_6" data-name="Lag 6"><g id="Lag_3" data-name="Lag 3"><path id="Rectangle_18-2" data-name="Rectangle 18-2" class="cls-1" d="M26.5,2h7a23,23,0,0,1,23,23h0a23,23,0,0,1-23,23h-7a23,23,0,0,1-23-23h0A23,23,0,0,1,26.5,2Z"/><path id="Rectangle_19-2" data-name="Rectangle 19-2" class="cls-2" d="M28.5,4h5a21,21,0,0,1,21,21h0a21,21,0,0,1-21,21h-5a21,21,0,0,1-21-21h0A21,21,0,0,1,28.5,4Z"/><path id="Icon_awesome-instagram" data-name="Icon awesome-instagram" class="cls-3" d="M30.79,17.37a7.09,7.09,0,0,0-7.24,7v0a7.1,7.1,0,0,0,7.23,7h0A7.1,7.1,0,0,0,38,24.37v0a7.1,7.1,0,0,0-7.22-7Zm0,11.51a4.54,4.54,0,1,1,4.72-4.54,4.63,4.63,0,0,1-4.72,4.54ZM40,17.09a1.69,1.69,0,1,1-1.76-1.63h.07A1.66,1.66,0,0,1,40,17.08Zm4.8,1.65A7.88,7.88,0,0,0,42.55,13a8.6,8.6,0,0,0-5.93-2.2c-2.33-.13-9.33-.13-11.66,0A8.64,8.64,0,0,0,19,13a7.94,7.94,0,0,0-2.28,5.7c-.13,2.25-.13,9,0,11.23A7.89,7.89,0,0,0,19,35.66,8.69,8.69,0,0,0,25,37.86c2.33.12,9.33.12,11.66,0a8.61,8.61,0,0,0,5.93-2.2A8,8,0,0,0,44.83,30c.13-2.25.13-9,0-11.22Zm-3,13.63A4.66,4.66,0,0,1,39.13,35c-1.86.71-6.28.55-8.34.55s-6.48.16-8.33-.55a4.71,4.71,0,0,1-2.69-2.58c-.74-1.8-.57-6-.57-8s-.16-6.24.57-8a4.7,4.7,0,0,1,2.69-2.59c1.86-.71,6.27-.54,8.33-.54s6.48-.16,8.33.54a4.7,4.7,0,0,1,2.69,2.59c.74,1.79.57,6,.57,8S42.56,30.58,41.81,32.37Z"/></g></g></svg>
