<svg xmlns="http://www.w3.org/2000/svg" xmlns:xlink="http://www.w3.org/1999/xlink" width="234" height="72" viewBox="0 0 234 72"><defs><style>.cls-1{fill:url(#Ikke-navngivet_forløb_5);}.cls-2{fill:url(#Ikke-navngivet_forløb_6);}</style><linearGradient id="Ikke-navngivet_forløb_5" x1="19.56" y1="-110" x2="18.09" y2="-110.03" gradientTransform="matrix(234, 0, 0, -72, -4231.99, -7885.6)" gradientUnits="userSpaceOnUse"><stop offset="0" stop-color="#fff"/><stop offset="0.08" stop-color="#fed700"/><stop offset="0.31" stop-color="#f55b15"/><stop offset="0.34" stop-color="#e23817"/><stop offset="0.4" stop-color="#c7061b"/><stop offset="0.74" stop-color="#581028"/><stop offset="0.87" stop-color="#582b52"/><stop offset="1" stop-color="#211869" stop-opacity="0.4"/></linearGradient><linearGradient id="Ikke-navngivet_forløb_6" x1="18.43" y1="-110.79" x2="18.43" y2="-109.47" gradientTransform="matrix(228, 0, 0, -68, -4083.99, -7451.6)" gradientUnits="userSpaceOnUse"><stop offset="0" stop-color="#fff"/><stop offset="0.03" stop-color="#581028"/><stop offset="0.14" stop-color="#582b52"/><stop offset="1" stop-color="#211869" stop-opacity="0.4"/></linearGradient></defs><g id="Lag_5" data-name="Lag 5"><g id="Group_16" data-name="Group 16"><path id="Rectangle_15" data-name="Rectangle 15" class="cls-1" d="M36,0H198a36,36,0,0,1,36,36h0a36,36,0,0,1-36,36H36A36,36,0,0,1,0,36H0A36,36,0,0,1,36,0Z"/><path id="Rectangle_17" data-name="Rectangle 17" class="cls-2" d="M38,2H198a34,34,0,0,1,34,34h0a34,34,0,0,1-34,34H38A34,34,0,0,1,4,36H4A34,34,0,0,1,38,2Z"/></g></g></svg>
