<svg xmlns="http://www.w3.org/2000/svg" xmlns:xlink="http://www.w3.org/1999/xlink" width="240" height="80" viewBox="0 0 240 80"><defs><style>.cls-1{fill:url(#Ikke-navngivet_forløb_5);}.cls-2{fill:url(#Ikke-navngivet_forløb_6);}</style><linearGradient id="Ikke-navngivet_forløb_5" x1="22.56" y1="-106" x2="21.09" y2="-106.03" gradientTransform="matrix(234, 0, 0, -72, -4930.99, -7593.6)" gradientUnits="userSpaceOnUse"><stop offset="0" stop-color="#fff"/><stop offset="0.08" stop-color="#ffd600"/><stop offset="0.31" stop-color="#ea5c1e"/><stop offset="0.34" stop-color="#e13919"/><stop offset="0.4" stop-color="#c7161e"/><stop offset="0.74" stop-color="#581229"/><stop offset="0.87" stop-color="#572b52"/><stop offset="1" stop-color="#2b2960" stop-opacity="0.4"/></linearGradient><linearGradient id="Ikke-navngivet_forløb_6" x1="21.43" y1="-106.79" x2="21.43" y2="-105.47" gradientTransform="matrix(228, 0, 0, -68, -4764.99, -7175.6)" gradientUnits="userSpaceOnUse"><stop offset="0" stop-color="#fff"/><stop offset="0.03" stop-color="#581229"/><stop offset="0.14" stop-color="#572b52"/><stop offset="1" stop-color="#2b2960" stop-opacity="0.4"/></linearGradient></defs><g id="Lag_5" data-name="Lag 5"><g id="Group_16" data-name="Group 16"><path id="Rectangle_15" data-name="Rectangle 15" class="cls-1" d="M39,4H201a36,36,0,0,1,36,36h0a36,36,0,0,1-36,36H39A36,36,0,0,1,3,40H3A36,36,0,0,1,39,4Z"/><path id="Rectangle_17" data-name="Rectangle 17" class="cls-2" d="M41,6H201a34,34,0,0,1,34,34h0a34,34,0,0,1-34,34H41A34,34,0,0,1,7,40H7A34,34,0,0,1,41,6Z"/></g></g></svg>
