<svg xmlns="http://www.w3.org/2000/svg" width="80" height="20" viewBox="0 0 80 20"><defs><style>.cls-1{isolation:isolate;}.cls-2{fill:#d6c97e;}</style></defs><g id="Lag_5" data-name="Lag 5"><g id="Kontakt" class="cls-1"><g class="cls-1"><path class="cls-2" d="M1.3,9.56H2.83a1.55,1.55,0,0,0,.31-.06,1.08,1.08,0,0,0,.26-.14,2.53,2.53,0,0,0,.26-.23l7.75-7.63a1,1,0,0,1,.28-.21A.75.75,0,0,1,12,1.22h.5L4.31,9.29a3.8,3.8,0,0,1-.38.32,1.34,1.34,0,0,1-.38.18A1.53,1.53,0,0,1,4,10a1.54,1.54,0,0,1,.36.33L13,18.8h-.5a.76.76,0,0,1-.35-.06.73.73,0,0,1-.22-.18L3.78,10.62a2.51,2.51,0,0,0-.25-.23.87.87,0,0,0-.25-.15,1,1,0,0,0-.33-.1,3.28,3.28,0,0,0-.49,0H1.3V18.8H.61V1.22H1.3Z"/><path class="cls-2" d="M19.25,6.27a5.57,5.57,0,0,1,2.33.46A4.68,4.68,0,0,1,23.3,8a5.7,5.7,0,0,1,1.06,2,9,9,0,0,1,.36,2.62,8.83,8.83,0,0,1-.36,2.6,5.7,5.7,0,0,1-1.06,2,4.6,4.6,0,0,1-1.72,1.26,5.73,5.73,0,0,1-2.33.45,5.7,5.7,0,0,1-2.33-.45,4.52,4.52,0,0,1-1.72-1.26,5.72,5.72,0,0,1-1.07-2,8.83,8.83,0,0,1-.36-2.6A9,9,0,0,1,14.13,10,5.72,5.72,0,0,1,15.2,8a4.6,4.6,0,0,1,1.72-1.29A5.54,5.54,0,0,1,19.25,6.27Zm0,12.15a4.92,4.92,0,0,0,2.1-.41,4,4,0,0,0,1.5-1.18A5,5,0,0,0,23.76,15a8.73,8.73,0,0,0,.3-2.37,8.83,8.83,0,0,0-.3-2.39,5.17,5.17,0,0,0-.91-1.85,4,4,0,0,0-1.5-1.18,4.92,4.92,0,0,0-2.1-.42,4.92,4.92,0,0,0-2.1.42A4.16,4.16,0,0,0,15.64,8.4a5.52,5.52,0,0,0-.91,1.85,9.26,9.26,0,0,0-.29,2.39A9.16,9.16,0,0,0,14.73,15a5.27,5.27,0,0,0,.91,1.82A4.06,4.06,0,0,0,17.15,18,4.92,4.92,0,0,0,19.25,18.42Z"/><path class="cls-2" d="M29,8.86A6.73,6.73,0,0,1,31.07,7a5.09,5.09,0,0,1,2.6-.7,4.74,4.74,0,0,1,1.8.32,3.36,3.36,0,0,1,1.27.91A4,4,0,0,1,37.5,9a6.92,6.92,0,0,1,.26,1.95V18.8H37.1V10.91a6,6,0,0,0-.22-1.72,3.53,3.53,0,0,0-.65-1.3,3,3,0,0,0-1.11-.81,3.92,3.92,0,0,0-1.56-.28,4.64,4.64,0,0,0-2.49.7,7.13,7.13,0,0,0-2,2V18.8h-.66V6.47h.32a.24.24,0,0,1,.25.25Z"/><path class="cls-2" d="M45,19a2.47,2.47,0,0,1-1.8-.63,2.76,2.76,0,0,1-.65-2V7.45H40.64c-.16,0-.24-.06-.24-.19V7L42.56,7l.19-4.75a.47.47,0,0,1,.06-.15A.17.17,0,0,1,43,2h.27V7H47.3v.5H43.22v8.86a2.84,2.84,0,0,0,.15,1,2,2,0,0,0,.4.67,1.46,1.46,0,0,0,.6.38,2.21,2.21,0,0,0,.74.12,2.28,2.28,0,0,0,.86-.15A4.61,4.61,0,0,0,46.6,18a4.43,4.43,0,0,0,.42-.33q.16-.15.24-.15a.26.26,0,0,1,.14.07l.16.24a2.78,2.78,0,0,1-.49.48,4.23,4.23,0,0,1-.62.37,4.45,4.45,0,0,1-.7.24A3.06,3.06,0,0,1,45,19Z"/><path class="cls-2" d="M49.85,8.22a7.29,7.29,0,0,1,1.93-1.45,5.24,5.24,0,0,1,2.32-.5,4.25,4.25,0,0,1,1.67.31A3,3,0,0,1,57,7.46a3.65,3.65,0,0,1,.7,1.39,7,7,0,0,1,.22,1.85v8.1h-.22a.27.27,0,0,1-.29-.26l-.13-1.83a12.64,12.64,0,0,1-1,.95,6,6,0,0,1-1.09.72,4.94,4.94,0,0,1-1.24.45,6,6,0,0,1-1.46.17,3.85,3.85,0,0,1-1.16-.18,3,3,0,0,1-1-.55,2.69,2.69,0,0,1-.74-1,3.26,3.26,0,0,1-.28-1.43,2.43,2.43,0,0,1,.47-1.47,3.79,3.79,0,0,1,1.45-1.15,10,10,0,0,1,2.5-.76,22.36,22.36,0,0,1,3.6-.33V10.7a4.55,4.55,0,0,0-.8-2.88,2.82,2.82,0,0,0-2.37-1,4.36,4.36,0,0,0-1.62.27,5.07,5.07,0,0,0-1.12.6,6.3,6.3,0,0,0-.72.6c-.18.18-.31.27-.41.27A.29.29,0,0,1,50,8.4Zm7.37,4.4a15.89,15.89,0,0,0-5.58.94,2.54,2.54,0,0,0-1.81,2.29A2.75,2.75,0,0,0,50.07,17a2.36,2.36,0,0,0,1.48,1.31,3.08,3.08,0,0,0,1,.16A5.56,5.56,0,0,0,54,18.33a5.3,5.3,0,0,0,1.22-.5,5.47,5.47,0,0,0,1.05-.73c.33-.29.64-.59.94-.9Z"/><path class="cls-2" d="M62.81.72V11.94h.57a1.45,1.45,0,0,0,.29,0,1,1,0,0,0,.34-.21l5.49-5a.76.76,0,0,1,.23-.18.56.56,0,0,1,.3-.07h.55l-5.91,5.34a1.45,1.45,0,0,1-.19.17,1.37,1.37,0,0,1-.2.13,1.09,1.09,0,0,1,.32.17l.26.23,6.2,6.29H70.5a.56.56,0,0,1-.23,0,.49.49,0,0,1-.21-.16l-5.79-5.84a1.3,1.3,0,0,0-.39-.29,1.49,1.49,0,0,0-.55-.07h-.52v6.4h-.66V.72Z"/><path class="cls-2" d="M76.78,19a2.5,2.5,0,0,1-1.8-.63,2.76,2.76,0,0,1-.65-2V7.45H72.41c-.16,0-.24-.06-.24-.19V7L74.33,7l.19-4.75a.47.47,0,0,1,.06-.15A.18.18,0,0,1,74.72,2H75V7h4.07v.5H75v8.86a2.84,2.84,0,0,0,.15,1,1.84,1.84,0,0,0,.4.67,1.37,1.37,0,0,0,.59.38,2.44,2.44,0,0,0,1.6,0,3.68,3.68,0,0,0,.63-.32,3.63,3.63,0,0,0,.43-.33c.11-.1.18-.15.23-.15a.23.23,0,0,1,.14.07l.16.24a2.48,2.48,0,0,1-.49.48,3.76,3.76,0,0,1-.62.37,4.13,4.13,0,0,1-.7.24A3.06,3.06,0,0,1,76.78,19Z"/></g></g></g></svg>
