<svg xmlns="http://www.w3.org/2000/svg" xmlns:xlink="http://www.w3.org/1999/xlink" width="60" height="50" viewBox="0 0 60 50"><defs><style>.cls-1{fill:url(#Ikke-navngivet_forløb_3);}.cls-2{fill:url(#Ikke-navngivet_forløb_6);}.cls-3{fill:#d5c87d;}</style><linearGradient id="Ikke-navngivet_forløb_3" x1="-478.14" y1="-132.14" x2="-479.61" y2="-132.18" gradientTransform="matrix(53, 0, 0, -46, 25423.01, -6054.6)" gradientUnits="userSpaceOnUse"><stop offset="0" stop-color="#fff"/><stop offset="0.08" stop-color="#ffd600"/><stop offset="0.31" stop-color="#ea5c1e"/><stop offset="0.4" stop-color="#c7161e"/><stop offset="0.74" stop-color="#581229"/><stop offset="0.87" stop-color="#572b52"/><stop offset="1" stop-color="#2b2960" stop-opacity="0.4"/></linearGradient><linearGradient id="Ikke-navngivet_forløb_6" x1="-479.58" y1="-134.82" x2="-479.57" y2="-133.49" gradientTransform="matrix(47, 0, 0, -42, 22571.01, -5608.6)" gradientUnits="userSpaceOnUse"><stop offset="0" stop-color="#fff"/><stop offset="0.03" stop-color="#581229"/><stop offset="0.14" stop-color="#572b52"/><stop offset="1" stop-color="#2b2960" stop-opacity="0.4"/></linearGradient></defs><g id="Lag_6" data-name="Lag 6"><g id="Lag_7" data-name="Lag 7"><path id="Rectangle_18-3" data-name="Rectangle 18-3" class="cls-1" d="M26.5,2h7a23,23,0,0,1,23,23h0a23,23,0,0,1-23,23h-7a23,23,0,0,1-23-23h0A23,23,0,0,1,26.5,2Z"/><path id="Rectangle_19-3" data-name="Rectangle 19-3" class="cls-2" d="M28.5,4h5a21,21,0,0,1,21,21h0a21,21,0,0,1-21,21h-5a21,21,0,0,1-21-21h0A21,21,0,0,1,28.5,4Z"/><path id="Icon_awesome-twitter" data-name="Icon awesome-twitter" class="cls-3" d="M43.29,18.65c0,.27,0,.55,0,.82,0,8.4-6.39,18.06-18.06,18.06a18,18,0,0,1-9.75-2.84c.51.05,1,.08,1.53.08a12.7,12.7,0,0,0,7.88-2.72A6.35,6.35,0,0,1,19,27.65a6.94,6.94,0,0,0,1.2.1,6.76,6.76,0,0,0,1.67-.21,6.36,6.36,0,0,1-5.09-6.23v-.08a6.28,6.28,0,0,0,2.87.8,6.36,6.36,0,0,1-2-8.49,18,18,0,0,0,13.09,6.64,7.85,7.85,0,0,1-.16-1.45,6.35,6.35,0,0,1,11-4.34,12.74,12.74,0,0,0,4-1.54,6.38,6.38,0,0,1-2.79,3.5,12.49,12.49,0,0,0,3.65-1A13.76,13.76,0,0,1,43.29,18.65Z"/></g></g></svg>
