<?xml version="1.0" standalone="no"?>
<!DOCTYPE svg PUBLIC "-//W3C//DTD SVG 20010904//EN"
 "http://www.w3.org/TR/2001/REC-SVG-20010904/DTD/svg10.dtd">
<svg version="1.0" xmlns="http://www.w3.org/2000/svg"
 width="1149.000000pt" height="1149.000000pt" viewBox="0 0 1149.000000 1149.000000"
 preserveAspectRatio="xMidYMid meet">
<metadata>
Created by potrace 1.11, written by Peter Selinger 2001-2013
</metadata>
<g transform="translate(0.000000,1149.000000) scale(0.100000,-0.100000)"
fill="#000000" stroke="none">
<path d="M4230 11482 c0 -5 -15 -9 -32 -9 -59 -1 -268 -25 -373 -43 -150 -27
-440 -102 -520 -136 -18 -7 -35 -10 -39 -7 -3 4 -6 2 -6 -4 0 -5 -28 -18 -62
-28 -35 -10 -67 -22 -73 -26 -5 -4 -39 -19 -75 -34 -36 -15 -86 -38 -112 -51
-27 -13 -48 -20 -48 -16 0 4 -4 2 -8 -3 -4 -6 -38 -26 -77 -45 -38 -19 -71
-38 -73 -42 -2 -5 -8 -8 -13 -8 -13 0 -209 -118 -309 -185 -107 -73 -284 -206
-288 -217 -2 -4 -8 -8 -12 -8 -5 0 -20 -10 -33 -22 -12 -13 -56 -52 -97 -88
-91 -78 -322 -309 -405 -404 -33 -37 -67 -76 -76 -85 -8 -9 -30 -36 -49 -61
-19 -25 -42 -52 -50 -60 -85 -79 -481 -679 -541 -817 -8 -18 -17 -33 -20 -33
-6 0 -15 -23 -17 -44 0 -5 -5 -12 -10 -15 -7 -5 -121 -229 -127 -251 -1 -3
-17 -36 -35 -75 -19 -38 -35 -74 -36 -80 -1 -5 -14 -37 -29 -69 -15 -33 -28
-65 -29 -70 -3 -16 -44 -123 -55 -143 -13 -23 -71 -186 -76 -212 -2 -11 -8
-29 -14 -40 -6 -11 -10 -24 -9 -28 1 -4 -5 -24 -14 -43 -12 -30 -31 -89 -29
-97 0 -2 -6 -20 -14 -42 -7 -22 -11 -42 -8 -45 4 -3 0 -6 -7 -6 -7 0 -11 -3
-7 -6 3 -4 0 -22 -8 -40 -8 -19 -11 -34 -8 -34 3 0 0 -6 -6 -13 -6 -8 -8 -16
-6 -19 3 -3 1 -17 -5 -32 -5 -15 -12 -37 -14 -49 -9 -43 -14 -63 -26 -107 -7
-25 -14 -53 -16 -63 -2 -10 -6 -27 -9 -38 -4 -10 -8 -31 -10 -47 -2 -15 -4
-27 -5 -27 -2 0 -5 -16 -14 -60 -3 -16 -9 -43 -12 -60 -4 -16 -7 -38 -8 -47 0
-10 -4 -18 -9 -18 -4 0 -6 -4 -2 -9 3 -5 0 -31 -6 -58 -10 -46 -13 -62 -23
-134 -3 -17 -7 -42 -11 -57 -3 -15 -7 -47 -10 -72 -8 -76 -14 -123 -21 -165
-7 -41 -11 -83 -19 -195 -2 -36 -9 -105 -14 -155 -11 -108 -14 -170 -15 -337
0 -71 -4 -128 -8 -128 -5 0 -8 -34 -8 -75 0 -41 3 -75 8 -75 4 0 7 -60 8 -132
0 -121 8 -273 20 -403 11 -118 13 -143 18 -203 3 -35 8 -71 10 -80 3 -10 8
-42 11 -72 8 -77 12 -110 19 -150 4 -19 9 -51 12 -70 3 -19 7 -47 9 -61 2 -14
9 -48 15 -74 6 -26 8 -50 5 -53 -2 -3 0 -11 6 -19 6 -7 9 -13 6 -13 -3 0 1
-24 8 -52 8 -29 16 -71 20 -93 3 -22 19 -92 36 -155 16 -63 31 -126 34 -140 2
-14 20 -81 41 -150 20 -69 37 -133 38 -142 0 -10 3 -18 6 -18 3 0 6 -8 7 -17
1 -10 9 -36 19 -58 10 -22 18 -44 19 -50 1 -15 31 -103 55 -165 12 -30 22 -61
23 -67 0 -7 4 -13 9 -13 4 0 7 -3 6 -7 -1 -5 11 -42 27 -83 16 -41 30 -77 30
-80 1 -16 61 -146 70 -152 5 -4 7 -8 2 -8 -4 0 -1 -13 8 -30 8 -16 15 -32 15
-35 0 -3 14 -33 32 -68 18 -34 32 -64 33 -67 0 -3 12 -30 27 -60 14 -30 27
-59 28 -65 1 -5 7 -17 14 -25 7 -8 24 -38 39 -66 53 -104 89 -169 105 -186 8
-10 12 -18 8 -18 -6 0 21 -44 113 -185 25 -38 49 -78 53 -88 4 -10 15 -25 23
-33 8 -9 20 -24 25 -35 24 -44 229 -322 242 -327 4 -2 24 -27 44 -55 21 -29
47 -61 58 -73 12 -12 39 -42 61 -69 94 -111 398 -408 519 -506 16 -13 42 -36
58 -52 16 -15 33 -27 36 -27 4 0 21 -11 37 -25 30 -24 46 -37 95 -74 49 -36
266 -178 310 -202 25 -13 47 -26 50 -29 12 -12 342 -180 354 -180 2 0 33 -13
68 -29 141 -65 511 -181 627 -197 19 -3 40 -9 46 -14 7 -6 14 -8 16 -5 3 2 30
0 60 -5 127 -23 282 -40 362 -40 43 0 66 -4 62 -10 -7 -12 3007 -14 3019 -2 4
4 26 8 49 8 44 2 140 11 192 18 64 9 121 17 150 22 97 18 120 22 120 24 0 2
14 5 55 13 14 3 54 13 90 22 36 9 70 18 75 19 6 1 15 4 20 8 6 3 26 9 45 14
49 11 49 11 55 14 3 1 10 4 15 5 6 1 12 4 15 5 3 1 8 3 13 5 4 1 21 7 37 14
17 7 38 14 48 16 9 2 23 7 30 12 6 4 18 9 25 10 6 2 18 4 25 6 6 1 19 7 27 12
8 5 17 10 20 11 3 0 19 7 35 14 17 7 33 13 38 12 4 -1 7 3 7 9 0 5 5 7 10 4 6
-3 10 -1 10 5 0 6 5 8 11 4 6 -3 14 -1 18 5 4 6 17 13 29 16 13 2 37 14 54 26
17 13 28 17 24 10 -6 -10 -3 -10 13 1 12 7 21 16 21 19 0 7 43 20 56 18 4 0
10 3 13 8 3 4 17 14 31 22 14 8 66 38 115 66 81 46 293 181 305 195 3 3 23 18
45 35 22 16 43 34 47 39 4 6 8 8 8 4 0 -8 24 10 71 52 15 14 37 32 49 40 12 8
38 30 58 48 20 18 49 41 65 50 15 9 27 22 27 29 0 7 4 13 9 13 12 0 303 289
386 384 39 44 77 87 85 97 8 9 27 31 42 50 14 19 49 62 77 96 29 35 48 63 44
63 -4 0 -3 4 3 8 6 4 34 39 62 77 29 39 61 81 72 95 11 14 20 31 20 38 0 6 5
12 10 12 6 0 10 7 10 15 0 8 5 15 10 15 6 0 10 6 10 14 0 8 3 16 8 18 17 7
132 200 126 210 -4 7 -3 8 4 4 7 -4 12 -1 12 8 0 9 5 16 10 16 6 0 10 7 10 15
0 8 5 15 12 15 6 0 8 3 5 7 -4 3 -1 13 7 22 8 9 29 45 47 81 18 36 35 67 38
70 10 9 95 185 93 192 -1 5 3 8 9 8 5 0 7 5 4 10 -3 6 -1 10 4 10 6 0 11 4 11
9 0 4 17 44 37 87 20 43 38 81 38 84 3 10 25 61 50 115 28 61 136 341 139 358
1 7 4 17 7 22 31 52 209 672 234 810 5 28 8 45 19 103 3 13 7 31 10 40 3 9 7
34 10 54 2 21 7 41 10 46 3 5 8 31 11 59 3 27 8 60 11 74 7 31 10 53 19 114 3
28 8 61 11 75 2 14 6 49 10 78 3 29 7 61 9 70 1 9 6 51 10 92 4 41 9 89 11
105 3 29 6 62 22 290 9 130 9 671 0 800 -4 55 -9 129 -12 165 -9 121 -28 309
-42 410 -3 19 -7 51 -10 70 -2 19 -6 46 -8 60 -3 14 -7 45 -11 69 -3 24 -7 47
-10 51 -2 3 -6 26 -9 51 -3 24 -8 53 -10 64 -2 11 -6 36 -10 55 -3 19 -8 46
-11 60 -3 14 -7 36 -10 50 -3 14 -9 40 -14 58 -5 18 -10 36 -10 40 -3 25 -14
82 -22 108 -5 17 -12 40 -14 50 -2 10 -12 48 -20 84 -9 36 -18 72 -20 80 -2 8
-8 27 -14 43 -6 15 -8 27 -5 27 4 0 1 7 -6 15 -7 8 -10 15 -7 15 3 0 -1 16 -9
35 -8 19 -14 37 -14 40 0 3 0 6 -1 8 0 1 -2 9 -4 18 -5 27 -60 194 -65 199 -3
3 -7 14 -8 25 -3 18 -49 146 -72 200 -29 70 -63 162 -63 173 0 6 -4 12 -9 12
-4 0 -7 3 -6 8 2 7 -22 66 -48 115 -9 15 -13 27 -10 27 12 0 -249 515 -296
582 -10 14 -18 29 -18 32 0 6 -21 40 -89 146 -20 30 -40 62 -46 72 -47 78 -89
138 -96 138 -5 0 -9 5 -9 11 0 12 -100 152 -112 157 -5 2 -8 10 -8 18 0 8 -4
14 -10 14 -5 0 -10 5 -10 10 0 6 -10 21 -22 33 -13 12 -39 42 -58 67 -53 69
-52 68 -97 116 -22 24 -39 44 -37 44 8 0 -72 85 -232 247 -84 84 -157 153
-163 153 -6 0 -11 7 -11 15 0 8 -5 15 -11 15 -7 0 -21 10 -33 23 -38 39 -134
117 -145 117 -6 0 -11 3 -11 8 0 10 -106 92 -119 92 -6 0 -11 3 -11 8 0 4 -20
21 -45 37 -24 17 -45 34 -45 38 0 5 -4 5 -10 2 -5 -3 -10 -1 -10 4 0 6 -6 11
-13 11 -7 0 -23 9 -35 20 -12 11 -26 20 -32 20 -5 0 -10 5 -10 10 0 6 -7 10
-15 10 -8 0 -15 5 -15 11 0 5 -4 8 -9 5 -5 -3 -12 1 -15 10 -3 8 -10 12 -16 9
-5 -3 -10 -2 -10 3 0 5 -8 12 -17 16 -10 3 -34 15 -53 27 -19 12 -48 30 -65
40 -39 23 -331 169 -340 169 -3 0 -25 9 -49 19 -70 32 -149 63 -176 68 -14 2
-26 8 -28 14 -2 5 -11 9 -20 9 -9 0 -41 9 -69 20 -29 11 -53 17 -53 14 0 -4
-7 -1 -15 6 -8 7 -15 10 -15 7 0 -3 -16 1 -35 9 -19 8 -35 12 -35 9 0 -3 -9
-1 -20 5 -12 6 -35 13 -53 15 -18 1 -39 6 -47 9 -8 3 -28 8 -45 11 -16 3 -39
8 -50 10 -62 14 -89 19 -168 30 -27 4 -59 9 -70 11 -12 3 -52 7 -88 9 -36 3
-81 8 -100 12 -49 10 -3099 15 -3099 5z"/>
</g>
</svg>
